<?xml version="1.0" encoding="utf-8"?>
<!-- Generator: Adobe Illustrator 24.3.0, SVG Export Plug-In . SVG Version: 6.00 Build 0)  -->
<svg version="1.1" id="Layer_1" xmlns="http://www.w3.org/2000/svg" xmlns:xlink="http://www.w3.org/1999/xlink" x="0px" y="0px"
	 viewBox="0 0 13135.9 7612.1" style="enable-background:new 0 0 13135.9 7612.1;" xml:space="preserve">
<style type="text/css">
	.st0{fill:#F4F4F4;stroke:#000000;stroke-miterlimit:10;}
	.st1{fill-rule:evenodd;clip-rule:evenodd;fill:#22323F;}
</style>
<rect class="st0" width="13135.9" height="7612.1"/>
<path id="Color_Fill_1" class="st1" d="M4447,1230.6h1532.2c49.4,0,125.5-7.5,163,6.7c57.9,21.9,82.7,69.5,113.4,118.4
	c49.3,77.5,98.6,155.1,147.8,232.7c25.2,40,58.6,76.6,71.4,127.7c13.4,53.4-13.7,97.4-31.9,128.5c-44.8,85.7-89.6,171.4-134.4,257
	c-15.7,29.7-31.4,59.4-47,89c-3.4,6.5-17.4,24.7-14.3,30.2c102.5,149.5,205,299,307.4,448.6c21,30.5,42,61,63,91.6
	c15.2,21.5,31.5,41.6,39.5,70.6c10.1,36.6,2.2,88.8-4.2,126c-7.6,81.7-15.1,163.5-22.7,245.3c0.6-0.3,1.1-0.6,1.7-0.8
	c113.4-187.9,226.8-375.7,340.2-563.6c-38.6-84-77.3-168-115.9-252c-21.8-49.6-53.6-93.6-63-153.7c-9.6-61.3,52.2-144.3,74.8-182.3
	c76.2-135.2,152.3-270.5,228.5-405.7c-29.1-53.5-58.2-107-87.4-160.4c-12.7-21.6-28.1-43.5-36.1-68.9c-18.2-57.8,7-109.4,32.8-141.1
	c36.4-44.8,103.1-43.7,185.6-43.7h1527.1c57.9,0,116.2-2.7,167.2,6.7c102.8,18.9,189.8,39.5,272.2,75.6
	c229,100.4,395.6,280,493.9,511.6c27,63.6,42.7,133.4,58,209.2c3.1,27.2,6.1,54.3,9.2,81.5c0.6,33.3,1.1,66.6,1.7,100v3211.3
	c0,134.2,5.9,275.2-21,383c-61.9,248.1-185.6,433.9-366.2,562.8c-48.1,34.4-99.3,69.8-156.2,94.9c-88.9,39.3-170.2,62.3-280.6,83.2
	c-55.6,10.5-119.4,8.4-183.1,8.4H7695.2c-775.2-0.3-1550.6-0.6-2326-0.8h-688.8c-153.7,0-315.1,5.9-436.8-25.2
	c-309.5-79.1-536.6-279.6-653.5-551c-33-76.7-51.1-158.6-68.9-252.8c-16-84.5-7.6-191.1-7.6-286.4V2341.9
	c0-96.6-7.6-203.2,8.4-288.1c25.6-135.9,59.5-248.6,119.3-348.6c120.6-201.8,297.9-355.3,542.6-432.6c54.1-17.1,111.4-25.2,173-36.1
	C4387,1234.5,4417,1232.6,4447,1230.6z M4449.5,1514.5l-68,5c-43.6,8-85.3,14.4-123.5,27.7c-178.6,62.3-295.1,172.2-383.9,324.2
	c-30.8,52.8-49.7,117.2-64.7,184.8c-3.4,25.5-6.7,51-10.1,76.4c-0.6,27.2-1.1,54.3-1.7,81.5v3181.9
	c330.4-330.1,660.8-660.2,991.2-990.4l168.8-168.8c45.7-45.7,90.8-92.6,142.8-131.9c90.4-68.2,193.8-122,315.8-158.8
	c45.5-13.7,94-20.2,144.5-29.4c36-6.6,110.2-12.4,150.4-5.9c14.8,0.6,29.7,1.1,44.5,1.7c35,4.8,70,9.5,105,14.3
	c118.1,26.1,221.1,64,310,119.3c36,22.5,70.7,46.9,104.2,73.1c38.4,29.9,67.7,63.7,117.6,83.2c41.8,16.3,112.9,18.4,156.2,1.7
	c60.4-23.3,95.5-63.5,136.9-105l147-147c129.9-129.6,259.8-259.3,389.8-388.9c87.9-87.9,171.2-183.2,278.9-251.2
	c79.2-50,165.4-89.2,265.4-119.3c224.9-67.6,522.6-24.8,684.6,69.7c54,31.5,104.8,59.5,152.9,95.8c44,33.2,82.3,73.1,121,111.7
	c47.3,47.3,94.6,94.6,142,142c123.2,122.9,246.4,245.8,369.6,368.8c66.6,66.6,133.3,133.3,199.9,199.9v-1890
	c0-89.8,2.9-181-15.1-252.8c-41.9-166.5-125-294.2-243.6-383.9c-81.7-61.8-173.4-103.2-292.3-129.4c-54.6-12-121.7-9.2-187.3-9.2
	h-289.8c-352.8-0.3-705.6-0.6-1058.4-0.8c2.5,11.6,11.3,21.7,16.8,31.1c16.4,27.9,27.8,52.1,34.4,90.7
	c9.3,53.8-49.2,133.8-68.9,167.2c-79.2,141.4-158.5,282.8-237.7,424.2c47,101.9,94.1,203.8,141.1,305.8
	c13.6,31,46.8,75.9,38.6,124.3c-9.8,57.9-37.9,92.1-63.8,133.6c-31.1,51.5-62.2,103-93.2,154.6c-120.7,199.9-241.3,399.8-362,599.8
	c-50.7,84-101.4,168-152,252c-25.8,42.2-47.7,96.7-86.5,126c-37.6,28.3-109.4,38.7-156.2,10.9c-66-39.1-82.6-106.5-64.7-206.6
	c2.5-29.7,5-59.4,7.6-89c23.2-244.4,46.5-488.9,69.7-733.3c-31.9-45.9-63.8-91.8-95.8-137.8l-231-337.7
	c-20.4-29.7-40.9-59.4-61.3-89c-18.4-26.2-37.3-49.3-45.4-86.5c-12.4-57.3,18.3-101.2,37.8-134.4c43.7-83.4,87.4-166.9,131-250.3
	c15.7-29.7,31.4-59.4,47-89c3.3-6.4,17.1-25.2,14.3-30.2c-49.6-78.7-99.1-157.4-148.7-236H4449.5z M4985.4,1931.2
	c372.7-5.6,616.5,207.7,726.6,464.5c75.1,175.3,75.7,405.7,0.8,582.1c-85,200.3-249.8,360-466.2,428.4
	c-41.3,13.1-84.6,20.6-131,29.4c-22.4,2-44.8,3.9-67.2,5.9c-24.4,4.1-60.4,2-82.3-1.7c-23-2.2-45.9-4.5-68.9-6.7
	c-63.2-12.7-120.1-27.4-172.2-49.6c-212.8-90.6-363.1-251.6-434.3-483.8c-26.2-85.4-44.4-216.1-23.5-323.4
	c9.6-49.5,17.8-97.4,34.4-140.3c86.4-222.4,233.3-373.7,455.3-460.3c45.1-17.6,94.7-26.7,147-37L4985.4,1931.2z M4993.8,2215.1
	l-51.2,5c-32.8,6.6-64.7,13.1-93.2,24.4c-132,52.1-225.4,146.5-277.2,278.9c-10.4,26.7-16.4,56.2-22.7,86.5
	c-14,67.9-3.7,153.2,13.4,208.3c44,141.7,132.9,242.7,262.1,299c35.3,15.4,73.5,26.4,116.8,35.3c16.2,1.4,32.5,2.8,48.7,4.2
	c16.2,0.3,32.5,0.6,48.7,0.8c38.5-6.5,73.6-7.5,106.7-17.6c142.6-43.7,247.2-137.8,303.2-268c47.7-110.7,46.4-260.9-0.8-370.4
	C5377.7,2337.9,5229.2,2214.5,4993.8,2215.1z M8006,3443.2l-45.4,2.5c-31.3,5.3-61.8,6.9-90.7,14.3
	c-99.8,25.5-182.4,64.7-253.7,118.4c-37.4,28.2-69.6,62.1-102.5,94.9c-42,42-84,84-126,126c-131.6,131.3-263.2,262.6-394.8,394
	c-103.2,103.2-191.9,217.1-340.2,275.5c-32.6,12.8-68.8,19.5-106.7,26.9c-144.3,28.2-294.3-34.9-373-90.7
	c-28.6-20.3-52.1-46.2-79.8-67.2c-75.8-57.4-160.1-100.6-267.1-127.7c-30.1-7.6-62.2-8.8-94.9-14.3c-10.1-0.3-20.2-0.6-30.2-0.8
	c-37.1-5.9-92.6,0.2-125.2,6.7c-146.5,29.4-239.4,79-336,156.2c-36.1,35.8-72.2,71.7-108.4,107.5l-187.3,187.3
	c-374.6,374.9-749.2,749.8-1123.9,1124.8c9.8,64.9,53.1,140.4,83.2,188.2c98.8,156.8,247.3,260,462,301.6c66,12.8,151,6.7,226.8,6.7
	h4070.6c78,0,160.8,4,226-10.1c131.8-28.5,224.5-79.6,312.5-149.5c22.4-17.8,45.9-38.3,63.8-60.5c70.6-87.6,125.7-177.7,157.1-306.6
	c14.5-59.6,14.3-129.8,14.3-204.1v-961c-264.9-264.6-529.7-529.2-794.6-793.8C8476.8,3623.3,8336.6,3443.9,8006,3443.2z"/>
</svg>
