<?xml version="1.0" encoding="utf-8"?>
<!-- Generator: Adobe Illustrator 24.3.0, SVG Export Plug-In . SVG Version: 6.00 Build 0)  -->
<svg version="1.1" id="Layer_1" xmlns="http://www.w3.org/2000/svg" xmlns:xlink="http://www.w3.org/1999/xlink" x="0px" y="0px"
	 viewBox="0 0 8192 7612.1" style="enable-background:new 0 0 8192 7612.1;" xml:space="preserve">
<style type="text/css">
	.st0{fill:#F4F4F4;stroke:#000000;stroke-width:0.6236;stroke-miterlimit:6.2363;}
	.st1{fill-rule:evenodd;clip-rule:evenodd;fill:#22323F;}
</style>
<rect y="1432.5" class="st0" width="8192" height="4747.2"/>
<path id="Color_Fill_1" class="st1" d="M4095.5,2199c31.2,0,337.9,1,389.3,1h952.4c36.1,0,72.5-1.7,104.3,4.2
	c64.1,11.8,118.4,24.6,169.8,47.1c142.8,62.6,246.7,174.6,308,319.1c16.8,39.7,26.6,83.2,36.2,130.5c1.9,17,3.8,33.9,5.7,50.8
	c0.4,20.8,0.7,41.5,1.1,62.4v2002.7c0,83.7,3.7,171.6-13.1,238.9c-38.6,154.7-115.7,270.6-228.4,351c-30,21.5-61.9,43.5-97.4,59.2
	c-55.4,24.5-106.1,38.9-175,51.9c-34.7,6.5-74.5,5.2-114.2,5.2H4799c-483.4-0.2-967-0.4-1450.6-0.5h-429.6
	c-95.9,0-196.5,3.7-272.4-15.7c-193-49.3-334.6-174.4-407.5-343.6c-20.6-47.8-31.9-98.9-43-157.7c-10-52.7-4.7-119.2-4.7-178.6V2893
	c0-60.2-4.7-126.7,5.2-179.7c16-84.8,37.1-155,74.4-217.4c75.2-125.8,185.8-221.6,338.4-269.8c33.7-10.7,69.5-15.7,107.9-22.5
	c18.8-1.2,37.5-2.4,56.2-3.7h955.5c30.8,0,155.2-0.9,186.9-0.9 M2774.9,2377l-42.4,3.1c-27.2,5-53.2,9-77,17.3
	c-111.4,38.9-184,107.4-239.4,202.2c-19.2,32.9-31,73.1-40.3,115.2c-2.1,15.9-4.2,31.8-6.3,47.6c-0.4,17-0.7,33.9-1.1,50.8v1984.3
	c206-205.9,412.1-411.7,618.1-617.6l105.3-105.3c28.5-28.5,56.6-57.7,89.1-82.3c56.4-42.5,120.9-76.1,196.9-99
	c28.4-8.5,58.6-12.6,90.1-18.3c22.5-4.1,68.7-7.7,93.8-3.7c9.2,0.4,18.5,0.7,27.8,1.1c21.8,3,43.7,5.9,65.5,8.9
	c73.7,16.3,137.9,39.9,193.3,74.4c22.5,14,44.1,29.2,65,45.6c23.9,18.6,42.2,39.7,73.3,51.9c26.1,10.2,70.4,11.5,97.4,1.1
	c37.7-14.5,59.6-39.6,85.4-65.5l91.7-91.7c81-80.8,162-161.7,243.1-242.5c54.8-54.8,106.8-114.2,173.9-156.7
	c49.4-31.2,103.1-55.6,165.5-74.4c140.3-42.2,325.9-15.5,426.9,43.5c33.7,19.6,65.4,37.1,95.4,59.7c27.4,20.7,51.3,45.6,75.5,69.7
	c29.5,29.5,59,59,88.6,88.6c76.8,76.6,153.7,153.3,230.5,230c41.5,41.5,83.1,83.1,124.7,124.7V2861c0-56,1.8-112.9-9.4-157.7
	c-26.1-103.8-78-183.5-151.9-239.4c-51-38.5-108.1-64.4-182.3-80.7c-34.1-7.5-75.9-5.7-116.8-5.7h-180.7c-220-0.2-440-0.4-660.1-0.5
	c-23.5,0-779.3,0-828.7,0.2h-980.2V2377z M3109.1,2636.8c232.4-3.5,384.5,129.5,453.1,289.7c46.8,109.3,47.2,253,0.5,363
	c-53,124.9-155.8,224.5-290.7,267.2c-25.8,8.2-52.8,12.8-81.7,18.3c-14,1.2-27.9,2.4-41.9,3.7c-15.2,2.6-37.7,1.2-51.3-1.1
	c-14.3-1.4-28.6-2.8-43-4.2c-39.4-7.9-74.9-17.1-107.4-30.9c-132.7-56.5-226.4-156.9-270.8-301.7c-16.3-53.3-27.7-134.8-14.7-201.7
	c6-30.9,11.1-60.7,21.5-87.5c53.9-138.7,145.5-233.1,283.9-287.1c28.1-11,59.1-16.7,91.7-23.1L3109.1,2636.8z M3114.3,2813.9
	l-31.9,3.1c-20.5,4.1-40.3,8.2-58.1,15.2c-82.3,32.5-140.6,91.4-172.9,173.9c-6.5,16.7-10.2,35-14.2,53.9
	c-8.7,42.3-2.3,95.5,8.4,129.9c27.4,88.4,82.9,151.4,163.5,186.5c22,9.6,45.8,16.5,72.8,22c10.1,0.9,20.3,1.7,30.4,2.6
	c10.1,0.2,20.3,0.4,30.4,0.5c24-4.1,45.9-4.7,66.5-11c88.9-27.3,154.2-85.9,189.1-167.1c29.7-69,28.9-162.7-0.5-231
	C3353.7,2890.5,3261.1,2813.5,3114.3,2813.9z M4992.8,3579.8l-28.3,1.6c-19.5,3.3-38.5,4.3-56.6,8.9
	c-62.2,15.9-113.8,40.3-158.2,73.8c-23.3,17.6-43.4,38.7-63.9,59.2c-26.2,26.2-52.4,52.4-78.6,78.6
	c-82.1,81.9-164.1,163.8-246.2,245.7c-64.4,64.4-119.7,135.4-212.2,171.8c-20.3,8-42.9,12.2-66.5,16.8
	c-90,17.6-183.5-21.8-232.6-56.6c-17.8-12.7-32.5-28.8-49.8-41.9c-47.3-35.8-99.8-62.7-166.6-79.6c-18.8-4.7-38.8-5.5-59.2-8.9
	c-6.3-0.2-12.6-0.4-18.8-0.5c-23.1-3.7-57.7,0.1-78.1,4.2c-91.4,18.3-149.3,49.3-209.5,97.4c-22.5,22.3-45,44.7-67.6,67L3083.3,4334
	c-233.6,233.8-467.2,467.6-700.9,701.5c6.1,40.5,33.1,87.6,51.9,117.4c61.6,97.8,154.2,162.1,288.1,188.1c41.2,8,94.2,4.2,141.4,4.2
	h2538.6c48.6,0,100.3,2.5,140.9-6.3c82.2-17.8,140-49.6,194.9-93.2c14-11.1,28.6-23.9,39.8-37.7c44-54.6,78.4-110.8,98-191.2
	c9-37.2,8.9-80.9,8.9-127.3v-599.3c-165.2-165-330.3-330-495.5-495C5286.4,3692.1,5199,3580.2,4992.8,3579.8z"/>
</svg>
